<?xml version="1.0" encoding="UTF-8" standalone="no"?> <svg id="Layer_1" data-name="Layer 1" xmlns="http://www.w3.org/2000/svg" viewBox="0 0 64 64"><title>wine_3</title><path d="M32,15a1,1,0,0,1-.71-.29L26.08,9.5a4,4,0,1,1,5.69-5.69l.23.24.23-.24A4,4,0,1,1,37.92,9.5l-5.21,5.21A1,1,0,0,1,32,15Z"/><path d="M28.92,4.63A2,2,0,0,0,27.5,8.08L32,12.59l4.5-4.51a2,2,0,0,0,0-2.85,2.06,2.06,0,0,0-2.86,0l-.94.94a1,1,0,0,1-1.42,0l-.94-.94A2,2,0,0,0,28.92,4.63Z"/><path d="M21,11a1,1,0,0,1-.89-.55,4.38,4.38,0,0,0-2.55-2.21L16.68,8a1,1,0,0,1,.64-1.9l.88.29a6.33,6.33,0,0,1,3.69,3.21,1,1,0,0,1-.44,1.34A.93.93,0,0,1,21,11Z"/><path d="M43,9a.93.93,0,0,1-.45-.11,1,1,0,0,1-.44-1.34A6.33,6.33,0,0,1,45.8,4.34l.88-.29A1,1,0,0,1,47.32,6l-.88.29a4.38,4.38,0,0,0-2.55,2.21A1,1,0,0,1,43,9Z"/><path d="M5.21,54.87l3.41-9.41,11.28,4.1L16.49,59a1,1,0,0,1-1.28.6l-9.4-3.41a1,1,0,0,1-.56-.52A1,1,0,0,1,5.21,54.87Z"/><polygon points="9.99 41.71 21.27 45.8 20.59 47.68 9.31 43.58 9.99 41.71"/><path d="M22.29,31.28a3,3,0,0,0,1.79,3.84,1,1,0,0,1,.57.52,1,1,0,0,1,0,.76L22,43.92l-11.28-4.1,2.73-7.51a1,1,0,0,1,.52-.57,1,1,0,0,1,.42-.09,1,1,0,0,1,.34.06,3,3,0,0,0,3.85-1.8l3.75-10.34L26,20.94Z"/><polygon points="27.41 17.18 26.73 19.06 22.97 17.69 23.65 15.81 27.41 17.18"/><path d="M8.62,45.46l11.28,4.1L16.49,59a1,1,0,0,1-1.28.6l-9.4-3.41a1,1,0,0,1-.56-.52,1,1,0,0,1,0-.76Z"/><polygon points="9.99 41.71 21.27 45.8 20.59 47.68 9.31 43.58 9.99 41.71"/><path d="M22.29,31.28a3,3,0,0,0,1.79,3.84,1,1,0,0,1,.57.52,1,1,0,0,1,0,.76L22,43.92l-11.28-4.1,2.73-7.51a1,1,0,0,1,.52-.57,1,1,0,0,1,.42-.09,1,1,0,0,1,.34.06,3,3,0,0,0,3.85-1.8l3.75-10.34L26,20.94Z"/><polygon points="27.41 17.18 26.73 19.06 22.97 17.69 23.65 15.81 27.41 17.18"/><polygon points="21.27 45.8 20.59 47.68 9.31 43.58 9.99 41.71 21.27 45.8"/><polygon points="21.27 45.8 20.59 47.68 9.31 43.58 9.99 41.71 21.27 45.8"/><polygon points="27.41 17.18 26.73 19.06 22.97 17.69 23.65 15.81 27.41 17.18"/><polygon points="27.41 17.18 26.73 19.06 22.97 17.69 23.65 15.81 27.41 17.18"/><polygon points="41.03 17.69 37.27 19.06 36.59 17.18 40.35 15.81 41.03 17.69"/><path d="M53.33,39.82l-11.28,4.1L39.32,36.4a1,1,0,0,1,0-.76,1,1,0,0,1,.57-.52,3,3,0,0,0,1.79-3.84L38,20.94l3.76-1.37,3.75,10.34a3,3,0,0,0,3.85,1.8,1,1,0,0,1,1.28.6Z"/><polygon points="54.69 43.58 43.41 47.68 42.73 45.8 54.01 41.71 54.69 43.58"/><path d="M58.75,55.63a1,1,0,0,1-.56.52l-9.4,3.41a1,1,0,0,1-1.28-.6l-3.41-9.4,11.28-4.1,3.41,9.41A1,1,0,0,1,58.75,55.63Z"/><polygon points="41.03 17.69 37.27 19.06 36.59 17.18 40.35 15.81 41.03 17.69"/><path d="M53.33,39.82l-11.28,4.1L39.32,36.4a1,1,0,0,1,0-.76,1,1,0,0,1,.57-.52,3,3,0,0,0,1.79-3.84L38,20.94l3.76-1.37,3.75,10.34a3,3,0,0,0,3.85,1.8,1,1,0,0,1,1.28.6Z"/><polygon points="54.69 43.58 43.41 47.68 42.73 45.8 54.01 41.71 54.69 43.58"/><path d="M58.75,55.63a1,1,0,0,1-.56.52l-9.4,3.41a1,1,0,0,1-1.28-.6l-3.41-9.4,11.28-4.1,3.41,9.41A1,1,0,0,1,58.75,55.63Z"/><polygon points="54.69 43.58 43.41 47.68 42.73 45.8 54.01 41.71 54.69 43.58"/><polygon points="54.69 43.58 43.41 47.68 42.73 45.8 54.01 41.71 54.69 43.58"/><polygon points="41.03 17.69 37.27 19.06 36.59 17.18 40.35 15.81 41.03 17.69"/><polygon points="41.03 17.69 37.27 19.06 36.59 17.18 40.35 15.81 41.03 17.69"/></svg>