<?xml version="1.0" encoding="UTF-8"?>
<!DOCTYPE svg PUBLIC "-//W3C//DTD SVG 1.1//EN" "http://www.w3.org/Graphics/SVG/1.1/DTD/svg11.dtd">
<!-- Creator: CorelDRAW -->
<svg xmlns="http://www.w3.org/2000/svg" xml:space="preserve" version="1.1" style="shape-rendering:geometricPrecision; text-rendering:geometricPrecision; image-rendering:optimizeQuality; fill-rule:evenodd; clip-rule:evenodd"
viewBox="0 0 1707 1707"
 xmlns:xlink="http://www.w3.org/1999/xlink">
 <defs>
  <style type="text/css">
   <![CDATA[
    .fil0 {fill:black}
   ]]>
  </style>
 </defs>
 <g id="Layer_x0020_1">
  <metadata id="CorelCorpID_0Corel-Layer"/>
  <g id="_414286480">
   <g>
    <g>
     <path class="fil0" d="M939 1330c-208,0 -377,-169 -377,-377 0,-209 169,-378 377,-378 209,0 378,169 378,378 0,208 -169,377 -378,377zm0 -706c-180,0 -329,147 -329,329 0,181 148,329 329,329 182,0 329,-148 329,-329 0,-182 -147,-329 -329,-329z"/>
    </g>
    <g>
     <path class="fil0" d="M939 1549c-276,0 -513,-187 -578,-455 -3,-12 4,-26 18,-29 12,-3 26,4 29,18 59,246 279,418 531,418 211,0 406,-122 496,-312l0 -57c0,-14 11,-25 25,-25 14,0 25,11 25,25l0 62c0,4 -2,7 -3,10 -98,209 -312,345 -543,345zm454 -920c-7,0 -14,-3 -19,-10 -83,-108 -203,-181 -336,-205 -14,-3 -22,-15 -19,-28 2,-14 15,-22 27,-19 146,26 276,107 367,225 8,11 5,26 -4,34 -5,2 -10,3 -16,3zm-878 -36c-6,0 -11,-1 -17,-7 -10,-8 -11,-25 -1,-35 79,-87 180,-148 294,-177 12,-3 26,4 29,18 3,12 -4,26 -18,29 -106,26 -199,83 -271,162 -2,7 -9,10 -16,10z"/>
    </g>
    <g>
     <path class="fil0" d="M1613 1154l-220 0c-14,0 -25,-11 -25,-25l0 -687c0,-135 110,-243 243,-243 14,0 25,11 25,25l0 908c0,11 -10,22 -23,22zm-195 -49l171 0 0 -856c-96,12 -171,94 -171,193l0 663z"/>
    </g>
    <g>
     <path class="fil0" d="M1613 1706l-155 0c-13,0 -24,-11 -24,-25l0 -551c0,-14 11,-25 24,-25 14,0 25,11 25,25l0 528 106 0 0 -528c0,-14 11,-25 25,-25 14,0 25,11 25,25l0 551c-3,14 -13,25 -26,25z"/>
    </g>
    <g>
     <path class="fil0" d="M383 1706l-158 0c-14,0 -25,-11 -25,-25l0 -792c-81,-60 -132,-186 -132,-326 0,-202 105,-364 234,-364 132,0 236,160 236,364 0,140 -51,266 -132,326l0 792c2,14 -9,25 -23,25zm-133 -48l109 0 0 -782c0,-8 4,-15 11,-21 72,-47 121,-165 121,-292 0,-174 -85,-316 -187,-316 -102,0 -188,145 -188,316 0,129 49,247 121,292 7,5 11,13 11,21l0 782 2 0z"/>
    </g>
    <g>
     <path class="fil0" d="M383 1455c-4,0 -9,-1 -13,-3l-158 -93c-11,-7 -15,-22 -8,-33 7,-11 22,-15 33,-8l158 93c11,7 16,22 9,33 -5,7 -13,11 -21,11z"/>
    </g>
    <g>
     <path class="fil0" d="M1068 500c-5,0 -9,-1 -13,-4l-134 -93 -133 93c-8,5 -19,5 -28,0 -8,-6 -12,-17 -8,-26l47 -156 -129 -97c-8,-7 -11,-17 -8,-26 3,-10 12,-17 22,-17l162 -3 53 -154c3,-10 13,-17 24,-17l0 0c9,0 19,7 23,17l53 154 162 3c10,0 20,7 23,17 2,9 0,20 -9,26l-130 97 48 156c3,9 0,20 -8,26 -7,3 -12,4 -17,4zm-313 -282l86 66c8,5 11,16 8,26l-32 104 89 -62c8,-6 20,-6 28,0l89 62 -32 -104c-3,-10 0,-21 8,-26l88 -66 -110 -1c-10,0 -20,-7 -22,-17l-35 -102 -35 102c-3,10 -12,17 -22,17l-108 1z"/>
    </g>
    <g>
     <path class="fil0" d="M789 955c-8,0 -15,-4 -19,-11 -7,-11 -4,-26 7,-33l218 -149c11,-7 26,-4 33,7 7,11 4,27 -7,34l-218 148c-4,3 -9,4 -14,4z"/>
    </g>
    <g>
     <path class="fil0" d="M888 1082c-7,0 -15,-5 -19,-10 -9,-11 -6,-26 5,-33l194 -142c12,-8 27,-5 34,6 7,11 5,26 -6,33l-194 140c-4,4 -8,6 -14,6z"/>
    </g>
   </g>
  </g>
 </g>
</svg>
