<?xml version="1.0" encoding="UTF-8" standalone="no"?> <svg id="Layer_1" data-name="Layer 1" xmlns="http://www.w3.org/2000/svg" viewBox="0 0 64 64"><title>decoration_8</title><path d="M18.11,20h-.19l-8-1.54a4.63,4.63,0,0,1-2.39-1.26,4.68,4.68,0,0,1,2.52-8,4.5,4.5,0,0,1,1.42,0A4.69,4.69,0,0,1,19.9,7.61h0a4.27,4.27,0,0,1,.45.84,4.69,4.69,0,0,1,.28,2.68l-1.54,8a1,1,0,0,1-1,.81ZM10.8,11.1a2.12,2.12,0,0,0-.44,0,2.56,2.56,0,0,0-1.08.43,2.68,2.68,0,0,0-.37,4.15,2.73,2.73,0,0,0,1.37.73l7,1.34,1.35-7a2.71,2.71,0,0,0-.17-1.54,2.64,2.64,0,0,0-.25-.47h0a2.7,2.7,0,0,0-4.88,1l-.14.75a1,1,0,0,1-.42.64,1,1,0,0,1-.76.16l-.76-.15A2.72,2.72,0,0,0,10.8,11.1Z"/><path d="M50.05,58a4.71,4.71,0,0,1-4.61-3.84l-1.48-8a1,1,0,0,1,.8-1.16l8-1.48a4.66,4.66,0,0,1,2.69.3,4.42,4.42,0,0,1,.82.45h0a4.68,4.68,0,0,1-.27,7.9,4.48,4.48,0,0,1-1.32.54,4.89,4.89,0,0,1,0,1.43A4.71,4.71,0,0,1,50.91,58,5,5,0,0,1,50.05,58ZM46.1,46.78l1.3,7a2.77,2.77,0,0,0,.71,1.38,2.71,2.71,0,0,0,2.43.78,2.71,2.71,0,0,0,2.17-2.19,3,3,0,0,0,0-.95l-.15-.76a1,1,0,0,1,.81-1.17l.76-.13a2.77,2.77,0,0,0,.88-.34,2.69,2.69,0,0,0,.16-4.53h0a2.68,2.68,0,0,0-.46-.26,2.79,2.79,0,0,0-1.56-.18Z"/><path d="M42.66,23.78a1,1,0,0,1-1-.89l-.89-8.11a4.73,4.73,0,0,1,.5-2.67,4.53,4.53,0,0,1,.51-.78h0a4.68,4.68,0,0,1,7.86.84,4.92,4.92,0,0,1,.44,1.36,4.61,4.61,0,0,1,1.43.14,4.69,4.69,0,0,1,1.86,8.16,4.77,4.77,0,0,1-2.48,1.06l-8.12.89Zm.68-11.2a2.39,2.39,0,0,0-.29.44,2.67,2.67,0,0,0-.29,1.54l.78,7.12,7.13-.78a2.7,2.7,0,0,0,1.39-4.78,2.6,2.6,0,0,0-1-.51,2.5,2.5,0,0,0-.94-.07l-.77.09a1,1,0,0,1-1.11-.89L48.12,14a2.78,2.78,0,0,0-.27-.89,2.72,2.72,0,0,0-2.71-1.49,2.69,2.69,0,0,0-1.8,1Z"/><path d="M17.52,54.52a5.34,5.34,0,0,1-.69-.05,4.68,4.68,0,0,1-3.08-1.85,4.76,4.76,0,0,1-.83-1.85,4.5,4.5,0,0,1-.07-1.42,4.85,4.85,0,0,1-1.35-.49A4.69,4.69,0,0,1,11,41h0a4.35,4.35,0,0,1,.83-.48,4.53,4.53,0,0,1,2.65-.39l8.09,1.2a1,1,0,0,1,.84,1.14l-1.21,8.08A4.6,4.6,0,0,1,21,53,4.66,4.66,0,0,1,17.52,54.52ZM12.15,42.58a2.7,2.7,0,0,0,.31,4.53,2.79,2.79,0,0,0,.91.3l.75.11A1,1,0,0,1,15,48.66l-.12.77a2.42,2.42,0,0,0,0,.93,2.78,2.78,0,0,0,.47,1.07,2.74,2.74,0,0,0,1.77,1.06,2.68,2.68,0,0,0,2.4-.86,2.77,2.77,0,0,0,.67-1.41l1-7.09-7.09-1.05a2.69,2.69,0,0,0-1.53.22,3.24,3.24,0,0,0-.47.28Z"/><path d="M32,37a5,5,0,1,1,5-5A5,5,0,0,1,32,37Zm0-8a3,3,0,1,0,3,3A3,3,0,0,0,32,29Z"/><path d="M32,25a1,1,0,0,1-1-1V18a1,1,0,0,1,2,0v6A1,1,0,0,1,32,25Z"/><path d="M32,15a3,3,0,1,1,3-3A3,3,0,0,1,32,15Zm0-4a1,1,0,1,0,1,1A1,1,0,0,0,32,11Z"/><path d="M32,7a1,1,0,0,1-1-1V4a1,1,0,0,1,2,0V6A1,1,0,0,1,32,7Z"/><path d="M26.35,27.34a1,1,0,0,1-.71-.29L21.4,22.8a1,1,0,1,1,1.41-1.41l4.24,4.24a1,1,0,0,1-.7,1.71Z"/><path d="M41.92,42.88a1,1,0,0,1-.71-.29L37,38.35a1,1,0,1,1,1.41-1.41l4.25,4.23a1,1,0,0,1,0,1.42A1,1,0,0,1,41.92,42.88Z"/><path d="M46,33H40a1,1,0,0,1,0-2h6a1,1,0,0,1,0,2Z"/><path d="M52,35a3,3,0,1,1,3-3A3,3,0,0,1,52,35Zm0-4a1,1,0,1,0,1,1A1,1,0,0,0,52,31Z"/><path d="M60,33H58a1,1,0,0,1,0-2h2a1,1,0,0,1,0,2Z"/><path d="M32,47a1,1,0,0,1-1-1V40a1,1,0,0,1,2,0v6A1,1,0,0,1,32,47Z"/><path d="M32,55a3,3,0,1,1,3-3A3,3,0,0,1,32,55Zm0-4a1,1,0,1,0,1,1A1,1,0,0,0,32,51Z"/><path d="M32,61a1,1,0,0,1-1-1V58a1,1,0,0,1,2,0v2A1,1,0,0,1,32,61Z"/><path d="M24,33H18a1,1,0,0,1,0-2h6a1,1,0,0,1,0,2Z"/><path d="M12,35a3,3,0,1,1,3-3A3,3,0,0,1,12,35Zm0-4a1,1,0,1,0,1,1A1,1,0,0,0,12,31Z"/><path d="M6,33H4a1,1,0,0,1,0-2H6a1,1,0,0,1,0,2Z"/></svg>