<?xml version="1.0" encoding="UTF-8" standalone="no"?> <svg viewBox="0 0 64 64" fill="none" xmlns="http://www.w3.org/2000/svg">
<path d="M55 32.93C54.9798 32.678 54.8659 32.4428 54.6808 32.2706C54.4956 32.0985 54.2528 32.0019 54 32H52V23C52 21.6739 51.4732 20.4021 50.5355 19.4645C49.5979 18.5268 48.3261 18 47 18H40V12C40 9.34784 38.9464 6.8043 37.0711 4.92893C35.1957 3.05357 32.6522 2 30 2C27.3478 2 24.8043 3.05357 22.9289 4.92893C21.0536 6.8043 20 9.34784 20 12V18H13C11.6739 18 10.4021 18.5268 9.46447 19.4645C8.52678 20.4021 8 21.6739 8 23V57C8 58.3261 8.52678 59.5979 9.46447 60.5355C10.4021 61.4732 11.6739 62 13 62H53.85C54.2614 61.9996 54.6684 61.9146 55.0456 61.7503C55.4228 61.586 55.7621 61.3458 56.0426 61.0448C56.323 60.7437 56.5385 60.3882 56.6757 60.0003C56.8129 59.6124 56.8688 59.2004 56.84 58.79L55 32.93ZM53.07 34L53.21 36H31.44L31.15 34H53.07ZM30 32C29.7591 32 29.5262 32.0871 29.3444 32.2451C29.1625 32.4031 29.0437 32.6214 29.01 32.86L27.73 41.81C24.61 39.03 19 33.43 19 29C19 27.6739 19.5268 26.4021 20.4645 25.4645C21.4021 24.5268 22.6739 24 24 24C25.3261 24 26.5979 24.5268 27.5355 25.4645C28.4732 26.4021 29 27.6739 29 29C29 29.2652 29.1054 29.5196 29.2929 29.7071C29.4804 29.8946 29.7348 30 30 30C30.2652 30 30.5196 29.8946 30.7071 29.7071C30.8946 29.5196 31 29.2652 31 29C31 27.6739 31.5268 26.4021 32.4645 25.4645C33.4021 24.5268 34.6739 24 36 24C37.3261 24 38.5979 24.5268 39.5355 25.4645C40.4732 26.4021 41 27.6739 41 29C40.9619 30.0379 40.7171 31.0578 40.28 32H30ZM22 12C22 9.87827 22.8429 7.84344 24.3431 6.34315C25.8434 4.84285 27.8783 4 30 4C32.1217 4 34.1566 4.84285 35.6569 6.34315C37.1571 7.84344 38 9.87827 38 12V18H36V12C36 10.4087 35.3679 8.88258 34.2426 7.75736C33.1174 6.63214 31.5913 6 30 6C28.4087 6 26.8826 6.63214 25.7574 7.75736C24.6321 8.88258 24 10.4087 24 12V18H22V12ZM34 12V18H26V12C26 10.9391 26.4214 9.92172 27.1716 9.17157C27.9217 8.42143 28.9391 8 30 8C31.0609 8 32.0783 8.42143 32.8284 9.17157C33.5786 9.92172 34 10.9391 34 12V12ZM25.13 60H13C12.2051 59.9976 11.4434 59.6808 10.8813 59.1187C10.3192 58.5566 10.0024 57.7949 10 57V23C10.0024 22.2051 10.3192 21.4434 10.8813 20.8813C11.4434 20.3192 12.2051 20.0024 13 20H47C47.7949 20.0024 48.5566 20.3192 49.1187 20.8813C49.6808 21.4434 49.9976 22.2051 50 23V32H42.43C42.7874 31.0392 42.9801 30.0249 43 29C42.9988 27.47 42.4963 25.9826 41.5695 24.7652C40.6427 23.5479 39.3426 22.6678 37.8682 22.2594C36.3937 21.8511 34.826 21.9371 33.405 22.5043C31.9841 23.0715 30.7881 24.0886 30 25.4C29.2119 24.0886 28.0159 23.0715 26.595 22.5043C25.174 21.9371 23.6063 21.8511 22.1318 22.2594C20.6574 22.6678 19.3573 23.5479 18.4305 24.7652C17.5037 25.9826 17.0012 27.47 17 29C17 34.67 23.95 41.26 27.39 44.17L25.13 60ZM28.08 60L30 57.6L31.92 60H28.08ZM30.78 55.38C30.6873 55.2617 30.5689 55.166 30.4338 55.1003C30.2986 55.0345 30.1503 55.0003 30 55.0003C29.8497 55.0003 29.7014 55.0345 29.5662 55.1003C29.4311 55.166 29.3127 55.2617 29.22 55.38L27.51 57.51L30 40.07L32.49 57.51L30.78 55.38ZM54.58 59.68C54.4879 59.782 54.3752 59.8633 54.2494 59.9184C54.1235 59.9736 53.9874 60.0014 53.85 60H34.87L31.72 38H53.35L54.85 58.93C54.8621 59.0671 54.8442 59.2052 54.7976 59.3347C54.7509 59.4642 54.6767 59.582 54.58 59.68V59.68Z" fill="black"/>
<path d="M46 43C45.2616 42.9993 44.5491 43.2722 44 43.766C43.5685 43.38 43.0345 43.1272 42.4625 43.0379C41.8904 42.9487 41.3048 43.0269 40.7762 43.263C40.2476 43.4992 39.7986 43.8833 39.4835 44.3689C39.1683 44.8546 39.0004 45.421 39 46C39 48.379 42.665 51.249 43.4 51.8C43.5731 51.9298 43.7836 52 44 52C44.2164 52 44.4269 51.9298 44.6 51.8C45.335 51.249 49 48.379 49 46C49 45.2044 48.6839 44.4413 48.1213 43.8787C47.5587 43.3161 46.7956 43 46 43ZM44 49.727C42.463 48.458 41 46.817 41 46C41 45.7348 41.1054 45.4804 41.2929 45.2929C41.4804 45.1054 41.7348 45 42 45C42.2652 45 42.5196 45.1054 42.7071 45.2929C42.8946 45.4804 43 45.7348 43 46C43 46.2652 43.1054 46.5196 43.2929 46.7071C43.4804 46.8946 43.7348 47 44 47C44.2652 47 44.5196 46.8946 44.7071 46.7071C44.8946 46.5196 45 46.2652 45 46C45 45.7348 45.1054 45.4804 45.2929 45.2929C45.4804 45.1054 45.7348 45 46 45C46.2652 45 46.5196 45.1054 46.7071 45.2929C46.8946 45.4804 47 45.7348 47 46C47 46.817 45.537 48.458 44 49.727V49.727Z" fill="black"/>
</svg>
