<?xml version="1.0" encoding="UTF-8" standalone="no"?> <svg viewBox="0 0 64 64" fill="none" xmlns="http://www.w3.org/2000/svg">
<path d="M7 26H9C9.00503 21.4929 10.7977 17.1718 13.9847 13.9847C17.1718 10.7977 21.4929 9.00503 26 9V7C20.9626 7.00556 16.1331 9.00912 12.5711 12.5711C9.00912 16.1331 7.00556 20.9626 7 26V26Z" fill="black"/>
<path d="M22 5V3C16.9626 3.00556 12.1331 5.00912 8.57111 8.57111C5.00912 12.1331 3.00556 16.9626 3 22H5C5.00503 17.4929 6.79771 13.1718 9.98474 9.98474C13.1718 6.79771 17.4929 5.00503 22 5V5Z" fill="black"/>
<path d="M57 36H55C54.995 40.5071 53.2023 44.8282 50.0153 48.0153C46.8282 51.2023 42.5071 52.995 38 53V55C43.0374 54.9944 47.8669 52.9909 51.4289 49.4289C54.9909 45.8669 56.9944 41.0374 57 36V36Z" fill="black"/>
<path d="M42 57V59C47.0374 58.9944 51.8669 56.9909 55.4289 53.4289C58.9909 49.8669 60.9944 45.0374 61 40H59C58.995 44.5071 57.2023 48.8282 54.0153 52.0153C50.8282 55.2023 46.5071 56.995 42 57V57Z" fill="black"/>
<path d="M60.9829 22.061L55.5429 19.734L52.3909 12.4C52.1945 11.9632 51.8359 11.6199 51.3909 11.443L44.6349 8.83299L41.2599 2.09399C41.1012 1.7556 40.8392 1.47637 40.5115 1.29663C40.1838 1.11689 39.8075 1.04593 39.4369 1.09399C39.0617 1.1348 38.7088 1.29251 38.4282 1.54482C38.1475 1.79712 37.9533 2.13126 37.8729 2.49999L35.4729 13.323C34.3275 13.1097 33.165 13.0016 31.9999 13C26.9608 13 22.128 15.0018 18.5648 18.565C15.0017 22.1281 12.9999 26.9609 12.9999 32C13.0027 33.1638 13.1118 34.325 13.3259 35.469L2.49987 37.874C2.13225 37.9555 1.79944 38.1502 1.54829 38.4308C1.29715 38.7114 1.14032 39.0636 1.09987 39.438C1.05341 39.8062 1.12379 40.1797 1.30107 40.5057C1.47836 40.8317 1.75358 41.0938 2.08787 41.255L8.83687 44.634L11.4409 51.4C11.6227 51.8476 11.9722 52.2065 12.4149 52.4L19.7339 55.544L22.0629 60.99C22.2012 61.3153 22.4325 61.5925 22.7279 61.7868C23.0232 61.9811 23.3694 62.0838 23.7229 62.082C23.7729 62.082 23.8239 62.08 23.8759 62.076C24.2504 62.0488 24.6067 61.904 24.894 61.6623C25.1814 61.4206 25.385 61.0943 25.4759 60.73L28.0849 50.59C29.3723 50.8609 30.6842 50.9982 31.9999 51C37.039 51 41.8717 48.9982 45.4349 45.435C48.9981 41.8718 50.9999 37.0391 50.9999 32C50.9981 30.6844 50.8607 29.3724 50.5899 28.085L60.7289 25.479C61.094 25.3831 61.42 25.1757 61.6615 24.8855C61.903 24.5954 62.0479 24.2371 62.0758 23.8606C62.1038 23.4842 62.0135 23.1084 61.8176 22.7858C61.6216 22.4631 61.3298 22.2097 60.9829 22.061V22.061ZM23.6829 59.686L21.5429 54.686C21.4543 54.4719 21.3241 54.2775 21.1598 54.1141C20.9955 53.9506 20.8004 53.8215 20.5859 53.734L13.2729 50.594L10.6879 43.894C10.537 43.4585 10.2214 43.0994 9.80887 42.894L3.46287 39.709L13.7849 37.416C14.6642 40.371 16.2497 43.0675 18.4044 45.2727C20.559 47.4778 23.218 49.1254 26.1519 50.073L23.6829 59.686ZM44.0209 44.021C41.2398 46.8021 37.5805 48.5329 33.6664 48.9185C29.7523 49.304 25.8257 48.3205 22.5554 46.1355C19.2852 43.9505 16.8737 40.6991 15.732 36.9355C14.5902 33.1718 14.7888 29.1287 16.2938 25.495C17.7988 21.8614 20.5172 18.8619 23.9858 17.0078C27.4544 15.1538 31.4586 14.5597 35.3161 15.3269C39.1735 16.0942 42.6457 18.1752 45.1408 21.2154C47.636 24.2556 48.9998 28.067 48.9999 32C49.0058 34.2333 48.5688 36.4457 47.7141 38.5091C46.8595 40.5725 45.6042 42.4459 44.0209 44.021V44.021ZM50.0729 26.152C49.1253 23.2182 47.4777 20.5591 45.2726 18.4045C43.0674 16.2498 40.3709 14.6644 37.4159 13.785L39.7089 3.46299L42.8859 9.80799C43.0838 10.2101 43.4296 10.52 43.8509 10.673L50.5909 13.273L53.7229 20.564C53.8088 20.7822 53.9374 20.981 54.1013 21.1488C54.2651 21.3166 54.4608 21.4499 54.6769 21.541L59.6859 23.683L50.0729 26.152Z" fill="black"/>
<path d="M38 21C36.7915 21.0006 35.6037 21.314 34.5522 21.9098C33.5008 22.5057 32.6215 23.3635 32 24.4C31.2119 23.0886 30.0159 22.0715 28.595 21.5043C27.174 20.9371 25.6063 20.8511 24.1318 21.2594C22.6574 21.6678 21.3573 22.5479 20.4305 23.7652C19.5037 24.9826 19.0012 26.47 19 28C19 35.415 30.894 44.42 31.4 44.8C31.5731 44.9298 31.7836 45 32 45C32.2164 45 32.4269 44.9298 32.6 44.8C33.106 44.42 45 35.415 45 28C44.9976 26.1442 44.2594 24.3651 42.9471 23.0529C41.6349 21.7406 39.8558 21.0024 38 21V21ZM32 42.734C28.439 39.932 21 33.026 21 28C21 26.6739 21.5268 25.4021 22.4645 24.4645C23.4021 23.5268 24.6739 23 26 23C27.3261 23 28.5979 23.5268 29.5355 24.4645C30.4732 25.4021 31 26.6739 31 28C31 28.2652 31.1054 28.5196 31.2929 28.7071C31.4804 28.8946 31.7348 29 32 29C32.2652 29 32.5196 28.8946 32.7071 28.7071C32.8946 28.5196 33 28.2652 33 28C33 26.6739 33.5268 25.4021 34.4645 24.4645C35.4021 23.5268 36.6739 23 38 23C39.3261 23 40.5979 23.5268 41.5355 24.4645C42.4732 25.4021 43 26.6739 43 28C43 33.565 34.367 40.841 32 42.734Z" fill="black"/>
</svg>
