<?xml version="1.0" encoding="UTF-8" standalone="no"?> <svg id="Layer_1" data-name="Layer 1" xmlns="http://www.w3.org/2000/svg" viewBox="0 0 64 64"><defs><style>.cls-1{fill:#ff0078;}</style></defs><title>bed</title><path d="M60,55H4a1,1,0,0,1-1-1V47a1,1,0,0,1,1-1H60a1,1,0,0,1,1,1v7A1,1,0,0,1,60,55ZM5,53H59V48H5Z"/><path d="M13,61H7a1,1,0,0,1-1-1V54a1,1,0,0,1,1-1h6a1,1,0,0,1,1,1v6A1,1,0,0,1,13,61ZM8,59h4V55H8Z"/><path d="M57,61H51a1,1,0,0,1-1-1V54a1,1,0,0,1,1-1h6a1,1,0,0,1,1,1v6A1,1,0,0,1,57,61Zm-5-2h4V55H52Z"/><path d="M25,40H19a5,5,0,0,1,0-10h6a5,5,0,0,1,0,10Zm-6-8a3,3,0,0,0,0,6h6a3,3,0,0,0,0-6Z"/><path d="M45,40H39a5,5,0,0,1,0-10h6a5,5,0,0,1,0,10Zm-6-8a3,3,0,0,0,0,6h6a3,3,0,0,0,0-6Z"/><path d="M58,48H6a1,1,0,0,1-1-1V43a5,5,0,0,1,3.75-4.84A4.5,4.5,0,0,1,10,38H54a4.38,4.38,0,0,1,1.27.17A5,5,0,0,1,59,43v4A1,1,0,0,1,58,48ZM7,46H57V43a3,3,0,0,0-2.25-2.9A2.61,2.61,0,0,0,54,40H10a2.75,2.75,0,0,0-.73.09A3,3,0,0,0,7,43Z"/><path d="M55,40.13a.84.84,0,0,1-.27,0A2.75,2.75,0,0,0,54,40H10a2.75,2.75,0,0,0-.73.09,1,1,0,0,1-.87-.16,1,1,0,0,1-.4-.8V24a7,7,0,0,1,7-7h9.18a1,1,0,0,1,.71.29L32,24.4l7.11-7.11a1,1,0,0,1,.71-.29H49a7,7,0,0,1,7,7V39.13a1,1,0,0,1-.4.8A1,1,0,0,1,55,40.13ZM10,38H54V24a5,5,0,0,0-5-5H40.23l-7.52,7.52a1,1,0,0,1-1.42,0L23.77,19H15a5,5,0,0,0-5,5Z"/><path class="cls-1" d="M32,26.81a1,1,0,0,1-.71-.29L22.86,18.1a6.45,6.45,0,0,1-1.73-3.25A6.15,6.15,0,0,1,21,13.57a6.38,6.38,0,0,1,9.07-5.79,6.07,6.07,0,0,1,1.84,1.27l.09.1.09-.09a5.85,5.85,0,0,1,1.85-1.28,6.17,6.17,0,0,1,2.67-.59,6.39,6.39,0,0,1,4.53,10.9l-8.43,8.43A1,1,0,0,1,32,26.81Z"/><path class="cls-1" d="M27.38,9.19a4.4,4.4,0,0,0-4.3,5.24,4.48,4.48,0,0,0,1.2,2.26L32,24.4l7.72-7.72a4.34,4.34,0,0,0,1.19-2.23h0a4.39,4.39,0,0,0-1.19-4,4.49,4.49,0,0,0-4.94-.87,4.07,4.07,0,0,0-1.27.88l-.8.8a1,1,0,0,1-1.42,0l-.8-.81a4.16,4.16,0,0,0-1.25-.86A4.49,4.49,0,0,0,27.38,9.19Z"/></svg>