<?xml version="1.0" encoding="UTF-8" standalone="no"?> <svg viewBox="0 0 64 64" fill="none" xmlns="http://www.w3.org/2000/svg">
<path d="M29.4902 18.35C29.5598 18.218 29.5979 18.0716 29.6014 17.9223C29.6049 17.7731 29.5736 17.6251 29.5102 17.49C29.4511 17.3536 29.362 17.2324 29.2494 17.1354C29.1368 17.0384 29.0038 16.9682 28.8602 16.93L11.4702 12.27C11.3255 12.2313 11.1741 12.2257 11.027 12.2533C10.8798 12.281 10.7408 12.3414 10.6202 12.43C10.5013 12.5199 10.4032 12.6343 10.3325 12.7654C10.2617 12.8965 10.22 13.0413 10.2102 13.19L8.04016 55.98L7.29016 58.78L3.43016 57.74L2.91016 59.67L12.5702 62.26L13.0902 60.33L9.22016 59.29L9.97016 56.5L29.4902 18.35ZM12.1502 14.52L27.1502 18.54L24.2002 24.29C23.7891 24.3484 23.3721 24.3517 22.9602 24.3C21.8288 24.1534 20.6792 24.3375 19.6502 24.83C18.5984 25.2781 17.6964 26.017 17.0502 26.96C16.6137 27.635 15.9825 28.1616 15.2402 28.47C14.5139 28.822 13.6986 28.9474 12.9002 28.83C12.4077 28.7835 11.9119 28.7869 11.4202 28.84L12.1502 14.52ZM11.3202 30.87C11.7885 30.7842 12.2669 30.7673 12.7402 30.82C13.8748 30.9725 15.0293 30.7882 16.0602 30.29C17.1083 29.8453 18.0071 29.1096 18.6502 28.17C19.0902 27.4919 19.7245 26.9621 20.4702 26.65C21.1934 26.2999 22.006 26.1779 22.8002 26.3C22.9202 26.3 23.0402 26.31 23.1702 26.32L10.2702 51.53L11.3202 30.87Z" fill="black"/>
<path d="M60.5698 57.74L56.7098 58.78L55.9598 55.98L53.7898 13.19C53.78 13.0413 53.7383 12.8965 53.6675 12.7654C53.5968 12.6343 53.4987 12.5199 53.3798 12.43C53.2591 12.3414 53.1201 12.281 52.973 12.2533C52.8259 12.2257 52.6744 12.2313 52.5298 12.27L35.1398 16.93C34.9962 16.9682 34.8631 17.0384 34.7506 17.1354C34.638 17.2324 34.5488 17.3536 34.4898 17.49C34.4289 17.6258 34.3992 17.7735 34.4026 17.9223C34.4061 18.071 34.4427 18.2172 34.5098 18.35L54.0298 56.5L54.7798 59.29L50.9098 60.33L51.4298 62.26L61.0898 59.67L60.5698 57.74ZM39.7998 24.29L36.8598 18.54L51.8498 14.52L52.5798 28.84C52.0881 28.7869 51.5922 28.7835 51.0998 28.83C50.3014 28.9474 49.486 28.822 48.7598 28.47C48.0175 28.1616 47.3863 27.635 46.9498 26.96C46.3035 26.017 45.4015 25.2781 44.3498 24.83C43.3208 24.3375 42.1712 24.1534 41.0398 24.3C40.6279 24.3517 40.2109 24.3484 39.7998 24.29ZM40.8298 26.32C40.9598 26.31 41.0798 26.3 41.1998 26.3C41.994 26.1779 42.8066 26.2999 43.5298 26.65C44.2755 26.9621 44.9098 27.4919 45.3498 28.17C45.9928 29.1096 46.8916 29.8453 47.9398 30.29C48.9673 30.7875 50.1184 30.9718 51.2498 30.82C51.7264 30.7672 52.2081 30.784 52.6798 30.87L53.7298 51.53L40.8298 26.32Z" fill="black"/>
<path d="M43.7244 12.69C45.6284 10.6829 47.9003 9.0602 50.4164 7.90998C53.7114 6.41518 57.3252 5.75901 60.9354 5.99998L61.0654 3.99998C57.1246 3.73966 53.1806 4.45763 49.5844 6.08998C46.837 7.34709 44.3562 9.11943 42.2764 11.311L43.7244 12.69Z" fill="black"/>
<path d="M13.5845 7.91004C16.1007 9.06026 18.3725 10.683 20.2765 12.69L21.7245 11.311C19.6449 9.11926 17.1641 7.34689 14.4165 6.09004C10.8204 4.45753 6.87632 3.73955 2.93555 4.00004L3.06555 6.00004C6.6757 5.76011 10.2892 6.41623 13.5845 7.91004V7.91004Z" fill="black"/>
<path d="M36.9191 14.4C38.1839 11.4381 40.1435 8.82441 42.6321 6.77998C44.074 5.60738 45.6758 4.64638 47.3891 3.92598L46.6111 2.08398C44.7229 2.87783 42.9578 3.93719 41.3691 5.22998C38.6307 7.47804 36.474 10.3524 35.0811 13.61L36.9191 14.4Z" fill="black"/>
<path d="M27.0823 14.4L28.9183 13.608C27.5257 10.3508 25.3693 7.47679 22.6313 5.22901C21.0424 3.93657 19.2773 2.87725 17.3893 2.08301L16.6113 3.92501C18.3246 4.646 19.9266 5.60695 21.3693 6.77901C23.8572 8.82448 25.8167 11.4383 27.0823 14.4V14.4Z" fill="black"/>
<path d="M38 38C36.7915 38.0006 35.6037 38.314 34.5522 38.9098C33.5008 39.5057 32.6215 40.3635 32 41.4C31.2119 40.0886 30.0159 39.0715 28.595 38.5043C27.174 37.9371 25.6063 37.8511 24.1318 38.2594C22.6574 38.6678 21.3573 39.5479 20.4305 40.7652C19.5037 41.9826 19.0012 43.47 19 45C19 52.415 30.894 61.42 31.4 61.8C31.5731 61.9298 31.7836 62 32 62C32.2164 62 32.4269 61.9298 32.6 61.8C33.106 61.42 45 52.415 45 45C44.9979 43.1441 44.2597 41.3649 42.9474 40.0526C41.6351 38.7403 39.8559 38.0021 38 38V38ZM32 59.734C28.439 56.931 21 50.026 21 45C21 43.6739 21.5268 42.4021 22.4645 41.4645C23.4021 40.5268 24.6739 40 26 40C27.3261 40 28.5979 40.5268 29.5355 41.4645C30.4732 42.4021 31 43.6739 31 45C31 45.2652 31.1054 45.5196 31.2929 45.7071C31.4804 45.8946 31.7348 46 32 46C32.2652 46 32.5196 45.8946 32.7071 45.7071C32.8946 45.5196 33 45.2652 33 45C33 43.6739 33.5268 42.4021 34.4645 41.4645C35.4021 40.5268 36.6739 40 38 40C39.3261 40 40.5979 40.5268 41.5355 41.4645C42.4732 42.4021 43 43.6739 43 45C43 50.565 34.367 57.841 32 59.734Z" fill="black"/>
<path d="M31.4 10.8C31.5731 10.9298 31.7836 11 32 11C32.2164 11 32.4269 10.9298 32.6 10.8C33.335 10.249 37 7.37901 37 5.00001C36.9996 4.42106 36.8317 3.85459 36.5165 3.36894C36.2014 2.88329 35.7524 2.49922 35.2238 2.26304C34.6952 2.02687 34.1096 1.94869 33.5375 2.03794C32.9655 2.12718 32.4315 2.38004 32 2.76601C31.5685 2.38004 31.0345 2.12718 30.4625 2.03794C29.8904 1.94869 29.3048 2.02687 28.7762 2.26304C28.2476 2.49922 27.7986 2.88329 27.4835 3.36894C27.1683 3.85459 27.0004 4.42106 27 5.00001C27 7.37901 30.665 10.249 31.4 10.8ZM30 4.00001C30.2652 4.00001 30.5196 4.10537 30.7071 4.2929C30.8946 4.48044 31 4.73479 31 5.00001C31 5.26523 31.1054 5.51958 31.2929 5.70712C31.4804 5.89465 31.7348 6.00001 32 6.00001C32.2652 6.00001 32.5196 5.89465 32.7071 5.70712C32.8946 5.51958 33 5.26523 33 5.00001C33 4.73479 33.1054 4.48044 33.2929 4.2929C33.4804 4.10537 33.7348 4.00001 34 4.00001C34.2652 4.00001 34.5196 4.10537 34.7071 4.2929C34.8946 4.48044 35 4.73479 35 5.00001C35 5.81701 33.537 7.45801 32 8.72701C30.463 7.45801 29 5.81701 29 5.00001C29 4.73479 29.1054 4.48044 29.2929 4.2929C29.4804 4.10537 29.7348 4.00001 30 4.00001V4.00001Z" fill="black"/>
</svg>
